<mxfile host="app.diagrams.net" agent="Mozilla/5.0 (Windows NT 10.0; Win64; x64) AppleWebKit/537.36 (KHTML, like Gecko) Chrome/109.0.0.0 Safari/537.36 Edg/109.0.1518.78" version="24.7.7">
  <diagram name="第 1 页" id="54BJwtoG-cp-33cE2wWl">
    <mxGraphModel dx="996" dy="372" grid="1" gridSize="10" guides="1" tooltips="1" connect="1" arrows="1" fold="1" page="1" pageScale="1" pageWidth="827" pageHeight="1169" math="0" shadow="0">
      <root>
        <mxCell id="0" />
        <mxCell id="1" parent="0" />
        <mxCell id="9z1HUDdmIe7pnTlIsTbF-13" value="" style="edgeStyle=orthogonalEdgeStyle;rounded=0;orthogonalLoop=1;jettySize=auto;html=1;" edge="1" parent="1" source="9z1HUDdmIe7pnTlIsTbF-14" target="9z1HUDdmIe7pnTlIsTbF-16">
          <mxGeometry relative="1" as="geometry" />
        </mxCell>
        <mxCell id="9z1HUDdmIe7pnTlIsTbF-14" value="收到AT+ESLBLOB=12" style="fontSize=14;zwfType=basicShape;strokeWidth=2;html=1;shape=mxgraph.flowchart.terminator;whiteSpace=wrap;strokeColor=#52BD94;fontColor=#FFFFFF;fillColor=#52BD94;" vertex="1" parent="1">
          <mxGeometry x="253" y="30" width="136" height="72" as="geometry" />
        </mxCell>
        <mxCell id="9z1HUDdmIe7pnTlIsTbF-15" value="" style="edgeStyle=orthogonalEdgeStyle;rounded=0;orthogonalLoop=1;jettySize=auto;html=1;" edge="1" parent="1" source="9z1HUDdmIe7pnTlIsTbF-16" target="9z1HUDdmIe7pnTlIsTbF-20">
          <mxGeometry relative="1" as="geometry" />
        </mxCell>
        <mxCell id="9z1HUDdmIe7pnTlIsTbF-16" value="验签，解密&lt;br&gt;Decode&lt;br&gt;(需要比较收到ServerTime比保存的时间大，才认为是有效的更新)" style="fontSize=14;spacingLeft=10;spacingRight=10;zwfType=basicShape;rounded=0;strokeWidth=2;strokeColor=#474D66;whiteSpace=wrap;html=1;" vertex="1" parent="1">
          <mxGeometry x="200" y="160" width="242" height="100" as="geometry" />
        </mxCell>
        <mxCell id="9z1HUDdmIe7pnTlIsTbF-17" value="&lt;span&gt;解析出：&lt;/span&gt;&lt;br&gt;&lt;span&gt;enabled, mode开关&lt;br&gt;activateTime, 锁机时长&lt;br&gt;advanceTime,提醒时长&lt;br&gt;serverTime 时间戳&lt;/span&gt;" style="fontSize=14;spacingLeft=10;spacingRight=10;zwfType=basicShape;shape=mxgraph.flowchart.data;html=1;strokeWidth=2;perimeter=parallelogramPerimeter;whiteSpace=wrap;rounded=1;arcSize=12;size=0.23;" vertex="1" parent="1">
          <mxGeometry x="503" y="80" width="260" height="120" as="geometry" />
        </mxCell>
        <mxCell id="9z1HUDdmIe7pnTlIsTbF-18" value="" style="spacingLeft=10;spacingRight=10;zwfType=line;endArrow=none;html=1;startSize=14;endSize=14;strokeLinecap=round;sourcePerimeterSpacing=8;targetPerimeterSpacing=8;strokeWidth=2;exitX=1;exitY=0.25;exitDx=0;exitDy=0;" edge="1" parent="1" source="9z1HUDdmIe7pnTlIsTbF-16" target="9z1HUDdmIe7pnTlIsTbF-17">
          <mxGeometry width="160" height="10" relative="1" as="geometry">
            <mxPoint x="453" y="190" as="sourcePoint" />
            <mxPoint x="613" y="180" as="targetPoint" />
          </mxGeometry>
        </mxCell>
        <mxCell id="9z1HUDdmIe7pnTlIsTbF-19" value="" style="edgeStyle=orthogonalEdgeStyle;rounded=0;orthogonalLoop=1;jettySize=auto;html=1;" edge="1" parent="1" source="9z1HUDdmIe7pnTlIsTbF-20" target="9z1HUDdmIe7pnTlIsTbF-23">
          <mxGeometry relative="1" as="geometry" />
        </mxCell>
        <mxCell id="9z1HUDdmIe7pnTlIsTbF-29" value="Yes" style="edgeLabel;html=1;align=center;verticalAlign=middle;resizable=0;points=[];" vertex="1" connectable="0" parent="9z1HUDdmIe7pnTlIsTbF-19">
          <mxGeometry x="-0.0575" y="-1" relative="1" as="geometry">
            <mxPoint as="offset" />
          </mxGeometry>
        </mxCell>
        <mxCell id="9z1HUDdmIe7pnTlIsTbF-20" value="是否成功解析" style="fontSize=14;spacingLeft=10;spacingRight=10;zwfType=basicShape;strokeWidth=2;rhombus;whiteSpace=wrap;html=1;strokeColor=#474D66;" vertex="1" parent="1">
          <mxGeometry x="236" y="340" width="170" height="90" as="geometry" />
        </mxCell>
        <mxCell id="9z1HUDdmIe7pnTlIsTbF-21" value="" style="edgeStyle=orthogonalEdgeStyle;rounded=0;orthogonalLoop=1;jettySize=auto;html=1;" edge="1" parent="1" source="9z1HUDdmIe7pnTlIsTbF-23" target="9z1HUDdmIe7pnTlIsTbF-24">
          <mxGeometry relative="1" as="geometry" />
        </mxCell>
        <mxCell id="9z1HUDdmIe7pnTlIsTbF-22" value="Yes" style="edgeLabel;html=1;align=center;verticalAlign=middle;resizable=0;points=[];" vertex="1" connectable="0" parent="9z1HUDdmIe7pnTlIsTbF-21">
          <mxGeometry x="0.0448" y="4" relative="1" as="geometry">
            <mxPoint as="offset" />
          </mxGeometry>
        </mxCell>
        <mxCell id="9z1HUDdmIe7pnTlIsTbF-23" value="更新realme锁卡数据NV" style="fontSize=14;spacingLeft=10;spacingRight=10;zwfType=basicShape;rounded=0;strokeWidth=2;strokeColor=#474D66;whiteSpace=wrap;html=1;" vertex="1" parent="1">
          <mxGeometry x="241" y="510" width="160" height="72" as="geometry" />
        </mxCell>
        <mxCell id="9z1HUDdmIe7pnTlIsTbF-31" style="edgeStyle=orthogonalEdgeStyle;rounded=0;orthogonalLoop=1;jettySize=auto;html=1;exitX=0.5;exitY=1;exitDx=0;exitDy=0;entryX=0.5;entryY=0;entryDx=0;entryDy=0;" edge="1" parent="1" source="9z1HUDdmIe7pnTlIsTbF-24" target="9z1HUDdmIe7pnTlIsTbF-30">
          <mxGeometry relative="1" as="geometry" />
        </mxCell>
        <mxCell id="9z1HUDdmIe7pnTlIsTbF-24" value="operation code&lt;br&gt;是否为0,1,3" style="fontSize=14;spacingLeft=10;spacingRight=10;zwfType=basicShape;strokeWidth=2;rhombus;whiteSpace=wrap;html=1;strokeColor=#474D66;" vertex="1" parent="1">
          <mxGeometry x="236" y="640" width="170" height="90" as="geometry" />
        </mxCell>
        <mxCell id="9z1HUDdmIe7pnTlIsTbF-25" value="离线锁机信息是否更新" style="fontSize=14;spacingLeft=10;spacingRight=10;zwfType=basicShape;strokeWidth=2;rhombus;whiteSpace=wrap;html=1;strokeColor=#474D66;" vertex="1" parent="1">
          <mxGeometry x="236" y="880" width="170" height="90" as="geometry" />
        </mxCell>
        <mxCell id="9z1HUDdmIe7pnTlIsTbF-26" value="重启累加定时器，时长为10s" style="fontSize=14;spacingLeft=10;spacingRight=10;zwfType=basicShape;rounded=0;strokeWidth=2;strokeColor=#474D66;whiteSpace=wrap;html=1;" vertex="1" parent="1">
          <mxGeometry x="241" y="1410" width="160" height="72" as="geometry" />
        </mxCell>
        <mxCell id="9z1HUDdmIe7pnTlIsTbF-28" value="&lt;span style=&quot;background-color: rgb(255, 255, 255); font-family: Consolas, &amp;quot;Courier New&amp;quot;, monospace; white-space: pre;&quot;&gt;duration_time_counter&lt;/span&gt;= 0&lt;div&gt;&lt;div style=&quot;background-color: rgb(255, 255, 255); font-family: Consolas, &amp;quot;Courier New&amp;quot;, monospace; line-height: 19px; white-space: pre;&quot;&gt;start_timestamp=time()&lt;/div&gt;&lt;/div&gt;" style="fontSize=14;spacingLeft=10;spacingRight=10;zwfType=basicShape;rounded=0;strokeWidth=2;strokeColor=#474D66;whiteSpace=wrap;html=1;" vertex="1" parent="1">
          <mxGeometry x="211.5" y="1280" width="219" height="72" as="geometry" />
        </mxCell>
        <mxCell id="9z1HUDdmIe7pnTlIsTbF-30" value="根据锁卡配置，执行原有的锁卡流程" style="fontSize=14;spacingLeft=10;spacingRight=10;zwfType=basicShape;rounded=0;strokeWidth=2;strokeColor=#474D66;whiteSpace=wrap;html=1;" vertex="1" parent="1">
          <mxGeometry x="241" y="770" width="160" height="72" as="geometry" />
        </mxCell>
        <mxCell id="9z1HUDdmIe7pnTlIsTbF-32" value="mode是否为1" style="fontSize=14;spacingLeft=10;spacingRight=10;zwfType=basicShape;strokeWidth=2;rhombus;whiteSpace=wrap;html=1;strokeColor=#474D66;" vertex="1" parent="1">
          <mxGeometry x="236" y="1000" width="170" height="90" as="geometry" />
        </mxCell>
        <mxCell id="9z1HUDdmIe7pnTlIsTbF-33" value="activateTime和更新之前的activeTime是否不同" style="fontSize=14;spacingLeft=10;spacingRight=10;zwfType=basicShape;strokeWidth=2;rhombus;whiteSpace=wrap;html=1;strokeColor=#474D66;" vertex="1" parent="1">
          <mxGeometry x="236" y="1140" width="170" height="90" as="geometry" />
        </mxCell>
        <mxCell id="9z1HUDdmIe7pnTlIsTbF-34" value="&lt;font face=&quot;Consolas, Courier New, monospace&quot;&gt;&lt;span style=&quot;white-space: pre; background-color: rgb(255, 255, 255);&quot;&gt;回复更新结果给AP&lt;/span&gt;&lt;/font&gt;&lt;div&gt;&lt;font face=&quot;Consolas, Courier New, monospace&quot;&gt;&lt;span style=&quot;background-color: rgb(255, 255, 255);&quot;&gt;&lt;span style=&quot;white-space: pre;&quot;&gt;AT&amp;lt; +OLCK: 1,0,180,12&lt;/span&gt;&lt;br&gt;&lt;/span&gt;&lt;/font&gt;&lt;/div&gt;" style="fontSize=14;spacingLeft=10;spacingRight=10;zwfType=basicShape;rounded=0;strokeWidth=2;strokeColor=#474D66;whiteSpace=wrap;html=1;" vertex="1" parent="1">
          <mxGeometry x="211.5" y="1530" width="219" height="72" as="geometry" />
        </mxCell>
        <mxCell id="9z1HUDdmIe7pnTlIsTbF-35" value="主动上报给AP&lt;div&gt;+OLCK:&amp;lt;mode&amp;gt;,&amp;lt;lock status&amp;gt;,&amp;lt;expire time&amp;gt;,&amp;lt;restriction&amp;gt;&lt;br&gt;&lt;/div&gt;" style="fontSize=14;spacingLeft=10;spacingRight=10;zwfType=basicShape;rounded=0;strokeWidth=2;strokeColor=#474D66;whiteSpace=wrap;html=1;" vertex="1" parent="1">
          <mxGeometry x="241" y="1670" width="160" height="72" as="geometry" />
        </mxCell>
        <mxCell id="9z1HUDdmIe7pnTlIsTbF-36" value="NV保存的数据：&lt;div&gt;&lt;span style=&quot;font-size: 14px; background-color: rgb(255, 255, 255); font-family: Consolas, &amp;quot;Courier New&amp;quot;, monospace; white-space: pre;&quot;&gt;duration_time_counter&lt;/span&gt;&lt;span style=&quot;font-size: 14px;&quot;&gt;：已用时长&lt;/span&gt;&lt;div style=&quot;font-size: 14px;&quot;&gt;&lt;div style=&quot;background-color: rgb(255, 255, 255); font-family: Consolas, &amp;quot;Courier New&amp;quot;, monospace; line-height: 19px; white-space: pre;&quot;&gt;start_timestamp:收到离线锁机数据时间&lt;/div&gt;&lt;/div&gt;&lt;/div&gt;" style="shape=step;perimeter=stepPerimeter;whiteSpace=wrap;html=1;fixedSize=1;" vertex="1" parent="1">
          <mxGeometry x="580" y="1278" width="300" height="74" as="geometry" />
        </mxCell>
      </root>
    </mxGraphModel>
  </diagram>
</mxfile>
